HIERARCHY
ROOT Hips
{
  OFFSET 196.326 95.9168 97.7182
  CHANNELS 6 Xposition Yposition Zposition Zrotation Xrotation Yrotation
  JOINT LeftUpLeg
  {
    OFFSET 8.64259 1.95398 -2.38835
    CHANNELS 3 Zrotation Xrotation Yrotation
    JOINT LeftLeg
    {
      OFFSET 43.7702 0 0
      CHANNELS 3 Zrotation Xrotation Yrotation
      JOINT LeftFoot
      {
        OFFSET 40.6238 0 0
        CHANNELS 3 Zrotation Xrotation Yrotation
        JOINT LeftToeBase
        {
          OFFSET 12.7242 0 0
          CHANNELS 3 Zrotation Xrotation Yrotation
          End Site
          {
            OFFSET 0 0 0
          }
        }
      }
    }
  }
  JOINT RightUpLeg
  {
    OFFSET -8.2249 1.95398 -2.59336
    CHANNELS 3 Zrotation Xrotation Yrotation
    JOINT RightLeg
    {
      OFFSET 43.5653 0 0
      CHANNELS 3 Zrotation Xrotation Yrotation
      JOINT RightFoot
      {
        OFFSET 40.6238 0 0
        CHANNELS 3 Zrotation Xrotation Yrotation
        JOINT RightToeBase
        {
          OFFSET 12.7242 0 0
          CHANNELS 3 Zrotation Xrotation Yrotation
          End Site
          {
            OFFSET 0 0 0
          }
        }
      }
    }
  }
  JOINT Spine
  {
    OFFSET 0.165834 0.87714 6.61349
    CHANNELS 3 Zrotation Xrotation Yrotation
    JOINT Spine1
    {
      OFFSET 7.38963 1.71661e-005 0
      CHANNELS 3 Zrotation Xrotation Yrotation
      JOINT Spine2
      {
        OFFSET 11.9445 1.14441e-005 0
        CHANNELS 3 Zrotation Xrotation Yrotation
        JOINT Spine3
        {
          OFFSET 14.7254 4.19617e-005 0
          CHANNELS 3 Zrotation Xrotation Yrotation
          JOINT Spine4
          {
            OFFSET 10.9679 0 0
            CHANNELS 3 Zrotation Xrotation Yrotation
            JOINT RightShoulder
            {
              OFFSET 2.46616 -1.6653 3.69651
              CHANNELS 3 Zrotation Xrotation Yrotation
              JOINT RightArm
              {
                OFFSET 13.0012 0 0
                CHANNELS 3 Zrotation Xrotation Yrotation
                JOINT RightForeArm
                {
                  OFFSET 28.7848 1.52588e-005 0
                  CHANNELS 3 Zrotation Xrotation Yrotation
                  JOINT RightHand
                  {
                    OFFSET 26.5688 1.52588e-005 0
                    CHANNELS 3 Zrotation Xrotation Yrotation
                    End Site
                    {
                      OFFSET 0 0 0
                    }
                  }
                }
              }
            }
            JOINT LeftShoulder
            {
              OFFSET 2.38034 -1.29275 -3.75231
              CHANNELS 3 Zrotation Xrotation Yrotation
              JOINT LeftArm
              {
                OFFSET 16.3182 6.10351e-005 0
                CHANNELS 3 Zrotation Xrotation Yrotation
                JOINT LeftForeArm
                {
                  OFFSET 27.0901 0 0
                  CHANNELS 3 Zrotation Xrotation Yrotation
                  JOINT LeftHand
                  {
                    OFFSET 24.5451 1.52588e-005 0
                    CHANNELS 3 Zrotation Xrotation Yrotation
                    End Site
                    {
                      OFFSET 0 0 0
                    }
                  }
                }
              }
            }
            JOINT Neck
            {
              OFFSET 5.0226 -0.0266342 0
              CHANNELS 3 Zrotation Xrotation Yrotation
              JOINT Head
              {
                OFFSET 6.69363 2.86102e-005 0
                CHANNELS 3 Zrotation Xrotation Yrotation
                End Site
                {
                  OFFSET 0 0 0
                }
              }
            }
          }
        }
      }
    }
  }
}
MOTION
Frames:	11
Frame Time:	0.0416667
-62.9547 47.9356 15.0508 39.6816 2.79843 84.4584 -171.68 38.052 98.0862 -79.8918 17.2563 -0.0319349 51.1059 4.20306 18.9809 68.9686 54.2134 16.6868 129.582 72.2758 142.729 -122.191 11.1844 -7.7825 54.3988 -2.30061 -3.37603 63.6487 15.9801 50.9743 -0.139637 9.37337 -91.0992 8.11522 -0.760816 -2.1281 -3.55719 -0.853716 -2.09259 -26.0785 -0.0862274 -2.25831 -6.06583 -0.0862332 -2.25831 91.6966 -7.60672 -114.849 -6.92144 26.3305 -29.6362 -19.1109 -17.4051 -47.9654 -38.3819 -5.35836 12.3809 -99.062 -22.9273 52.2507 41.7187 -15.5508 -15.7385 -0.4626 -2.15459 -32.775 24.8724 1.6553 2.93129 25.6704 -11.7388 4.23839 17.7174 -14.2557 -6.90156 
-64.0733 48.4089 16.8613 43.2358 5.72538 82.7208 -175.105 37.5679 98.5416 -81.598 19.3228 0.561947 49.4325 1.26463 15.5294 62.5927 50.3599 22.6899 130.359 70.6243 139.712 -122.68 12.1942 -7.92117 55.3529 -3.00567 -3.83965 65.588 15.1493 44.9826 -0.0175753 9.39222 -91.1645 8.0785 -0.545297 -2.26958 -3.59428 -0.644629 -2.24342 -26.1135 0.161806 -2.32854 -6.10086 0.161804 -2.32854 90.5111 -9.10696 -117.091 -8.51636 26.5849 -24.7091 -21.0361 -18.795 -48.0674 -36.3489 -5.04187 12.5073 -101.327 -25.6753 49.8085 37.393 -14.6381 -16.169 2.27983 0.498202 -42.6396 26.104 2.01939 3.89086 25.227 -12.4894 7.43743 16.821 -16.002 -6.84613 
-65.3732 48.8974 18.1397 46.9431 9.07126 80.4828 -178.456 38.7746 98.5586 -84.6095 20.2691 1.06192 47.1234 -1.68377 12.1219 64.7546 48.6898 16.4029 132.795 70.6446 134.3 -123.576 12.4529 -7.99181 55.0683 -3.23224 -4.07677 62.9573 15.2747 49.9103 0.119576 9.40012 -91.2407 8.06383 -0.304908 -2.43387 -3.60933 -0.411714 -2.41812 -26.1265 0.440455 -2.41304 -6.11387 0.440444 -2.41304 89.3529 -10.1489 -119.452 -11.896 26.216 -18.3472 -19.0879 -18.2342 -44.9574 -34.1982 -4.56632 11.7954 -104.002 -28.6349 47.0112 28.8532 -11.149 -13.7289 7.69988 2.56477 -57.7755 25.6648 2.4252 5.68163 25.2174 -13.8165 11.0765 15.8754 -18.5056 -7.07165 
-66.9213 49.38 19.4057 51.2315 12.8845 78.2548 -179.791 42.3227 99.1748 -89.7018 20.1672 1.12893 46.047 -2.08207 13.401 69.4757 43.6899 0.0802611 133.746 69.9564 129.65 -124.202 11.3306 -8.09967 53.6112 -2.87189 -3.97616 60.2413 14.1939 51.5017 0.346332 9.32093 -91.2135 8.22739 0.157847 -2.4074 -3.44578 0.0517774 -2.41203 -25.9649 0.87389 -2.24881 -5.95227 0.873893 -2.24883 87.6759 -14.7524 -120.138 -17.9945 23.6447 -12.7087 -17.0472 -18.3574 -40.6503 -29.1706 -4.18222 12.9227 -107.719 -31.7971 42.8887 20.6389 -3.41446 -8.22098 14.0814 2.3259 -71.3888 22.2955 2.38185 6.86915 24.3706 -16.1963 11.0889 15.3146 -20.2987 -5.17134 
-68.6665 50.1003 20.8283 56.0195 17.5458 75.7079 -179.007 47.9208 99.1485 -94.08 13.3297 1.63857 48.2172 1.92411 18.2961 75.5362 43.681 -9.788 131.32 68.4771 126.835 -123.509 13.5038 -8.52601 51.0282 -2.93857 -4.17174 60.6095 14.3043 51.1538 0.393189 9.37731 -91.0603 8.11752 0.319811 -2.11402 -3.55514 0.226505 -2.12605 -26.0787 0.940261 -1.9203 -6.06609 0.940281 -1.92029 87.4946 -16.5349 -119.304 -21.2194 19.6014 -8.58244 -13.6447 -19.5114 -35.1425 -25.1285 -3.16257 10.8357 -107.623 -33.6512 44.2551 11.5111 5.60598 -5.27864 18.6119 2.21762 -75.4589 17.056 1.83389 6.8516 24.1559 -18.2743 11.641 14.9507 -22.2726 -4.43113 
-70.3848 50.8453 22.4068 61.3024 20.3886 72.9446 -175.49 53.4703 98.2376 -96.9501 8.01778 1.96803 51.5874 5.81242 19.9743 67.7436 39.7583 -3.8974 132.543 67.0522 122.381 -123.777 11.6763 -8.56188 50.7842 -2.936 -4.50189 61.4201 15.1202 52.3176 0.471193 9.52465 -90.7923 7.82632 0.595196 -1.59552 -3.84549 0.524402 -1.62018 -26.3758 1.04717 -1.34295 -6.36317 1.04716 -1.34297 87.1865 -20.3081 -117.479 -20.9728 22.1313 -5.73827 -14.821 -16.0457 -40.5029 -13.7514 -1.69977 10.0849 -107.607 -34.9274 45.0874 3.08076 12.4835 0.366729 18.3799 3.54181 -72.4484 18.3511 2.10457 7.60298 19.5562 -20.5665 9.52789 17.6122 -23.4225 -3.5013 
-71.9786 51.4879 23.5601 65.9881 23.176 71.1541 -170.867 59.7218 96.0987 -99.3221 5.22336 2.20035 55.7137 9.55953 20.4279 69.361 39.0522 -8.10767 131.731 65.6069 119.924 -124.012 10.0001 -8.52576 50.0694 -2.81666 -4.87368 62.3884 14.895 49.7101 0.472471 9.64975 -90.5348 7.57657 0.71139 -1.09123 -4.09465 0.662652 -1.12148 -26.629 1.00642 -0.827009 -6.6164 1.00644 -0.827004 86.3307 -25.636 -116.195 -20.7504 23.8709 -4.78099 -14.5348 -13.6006 -42.2987 -8.94769 -1.00556 7.95389 -106.915 -35.0344 46.2511 -4.82512 15.0019 7.28349 17.7444 6.30569 -67.4497 21.2338 2.77541 9.28229 14.2864 -22.6089 5.69928 20.1975 -23.9512 -2.15038 
-73.4158 51.8685 24.5637 70.5702 24.1237 69.1321 -160.471 64.8257 89.5701 -101.323 8.99569 1.94258 55.7019 9.43996 24.026 66.7289 39.609 -2.28006 132.278 63.9597 117.192 -123.633 11.7669 -8.50941 48.6398 -3.21776 -5.53055 62.7885 14.4056 47.3444 0.467108 9.94104 -90.2207 6.99413 0.838218 -0.470307 -4.67664 0.816717 -0.506762 -27.2139 0.940817 -0.19663 -7.20123 0.940812 -0.196634 84.6251 -29.2017 -117.664 -21.1133 19.1413 -1.93446 -13.3927 -13.8044 -42.1242 -12.4269 -1.43378 8.84446 -105.223 -35.6749 49.3369 -10.1871 14.7561 12.0346 14.8702 8.25485 -61.203 23.4488 3.13377 9.61556 12.3462 -23.4967 4.83954 19.7106 -24.8802 -3.57323 
-74.5641 52.1627 25.4642 74.3665 24.5292 66.9826 -144.043 68.2691 76.7267 -102.514 12.7785 1.67411 56.5562 8.88642 23.0325 67.3692 39.848 -3.02133 133.723 62.8279 114.275 -123.612 12.2465 -8.44798 48.1151 -3.53615 -6.14972 62.4836 14.3855 47.8497 0.504237 10.2022 -89.9134 6.46806 1.04427 0.132048 -5.20249 1.04905 0.0859481 -27.7404 0.956282 0.439816 -7.72777 0.956284 0.439809 82.0373 -35.012 -119.358 -23.1068 16.0033 0.470901 -13.1694 -13.3013 -44.0297 -10.9725 -1.28308 8.80788 -104.614 -36.4353 50.7463 -14.016 14.1469 16.4858 12.837 9.56402 -56.2935 25.885 3.51616 9.90139 11.0143 -24.2259 3.56694 19.3901 -25.2862 -3.59482 
-75.5663 52.1689 25.9024 78.0574 24.7103 65.4125 -128.233 69.2678 63.3856 -102.705 20.0931 0.985689 57.0552 8.88596 24.3696 64.1323 38.2395 0.127273 135.828 61.4979 110.666 -123.642 13.1346 -8.4013 46.0932 -3.36078 -6.35592 63.4802 15.6625 50.2066 0.527676 10.441 -89.7015 5.9889 1.17949 0.552397 -5.6816 1.20264 0.499931 -28.2189 0.958933 0.881364 -8.20628 0.958939 0.881356 79.5603 -39.462 -121.313 -22.9534 13.5866 2.30746 -13.7521 -13.57 -44.9163 -11.0199 -1.20642 7.92928 -103.872 -36.631 52.0481 -17.9166 13.8542 19.4955 10.7416 11.1149 -50.207 24.1064 2.75468 7.6582 9.08698 -24.6693 2.83438 19.9281 -25.6422 -3.81873 
-76.4413 52.0743 25.979 80.9941 24.8293 64.3655 -113.649 68.6998 50.6488 -102.484 26.8127 0.273383 56.8789 6.84457 22.0513 62.1383 38.046 3.87144 135.126 60.5163 109.686 -124.512 12.5074 -8.39969 47.1627 -3.68746 -6.80207 62.7154 14.0344 46.2023 0.50239 10.5877 -89.5478 5.69309 1.19277 0.857881 -5.97758 1.22938 0.804533 -28.5131 0.879814 1.17669 -8.50048 0.879819 1.17666 77.9124 -42.8396 -122.27 -21.42 11.9593 2.82747 -14.0504 -14.0835 -45.3339 -14.0203 -1.61122 8.91419 -103.446 -37.0012 52.933 -21.8986 14.3765 22.233 8.05461 11.3892 -45.3098 21.7304 2.44025 7.44366 7.39322 -25.0752 3.01177 20.4767 -26.2902 -4.65397 
